<?xml version="1.0" encoding="utf-8"?>
<!-- Generator: Adobe Illustrator 27.0.0, SVG Export Plug-In . SVG Version: 6.00 Build 0)  -->
<svg version="1.1" id="Layer_1" xmlns="http://www.w3.org/2000/svg" xmlns:xlink="http://www.w3.org/1999/xlink" x="0px" y="0px"
	 viewBox="0 0 1730 609.3" style="enable-background:new 0 0 1730 609.3;" xml:space="preserve">
<style type="text/css">
	.st0{clip-path:url(#SVGID_00000141415928485963825140000006207598788476026276_);}
	.st1{fill:#7090AA;}
</style>
<g>
	<defs>
		<rect id="SVGID_1_" x="-2500.8" y="0.4" width="5065" height="608.6"/>
	</defs>
	<clipPath id="SVGID_00000047769741269646715440000013641491401510758278_">
		<use xlink:href="#SVGID_1_"  style="overflow:visible;"/>
	</clipPath>
	<g style="clip-path:url(#SVGID_00000047769741269646715440000013641491401510758278_);">
		<path class="st1" d="M-2513.1,608.3l97.3-32.4c456-146.6,746.3-264.3,870.8-352.8c5.9-1.3,13-1.2,21.6,0.4
			c7.1,1.2,21.6,7.1,43.6,17.7c4.6,1.5,8.7,1.9,12.3,1.4c51.2-39.3,90.7-58,118.4-56c30.8-1.1,50.8,11.6,60.1,37.9
			c17-12.5,31.9-19.7,44.8-21.8c3.9-0.7,9-0.6,15.2,0.1l43.1,8.8l35.4-0.7l65.8,41.4c5.6,1.1,11.7,1.4,18.4,1.1l65.2-5.4
			c10.1-0.1,20.5,0.9,31.3,2.9l168.6,57.4c30.5,8.9,70.6,18.8,120.4,29.6c215.7-84.9,368.2-149.7,457.6-194.4
			c21.8-9,50.1-8.5,85,1.3c46.8-16,115.1-52.2,204.7-108.7c26-10.5,73.7-10.4,143.1,0.4c45.1-23.9,76.9-35.2,95.5-34.1
			c3.1-0.6,10.4,0.6,21.9,3.8l54.6,24.1c3.9,0.7,7.7,0.7,11.6-0.1c24.1-8.8,39.7-13.1,46.8-12.9c14.8-1.1,30.9,1.6,48.3,8l56.4,28.7
			l220,140.3c20.9,9.3,38.4,14.2,52.4,14.9c5.5,2.3,26.7-0.4,63.4-7.9c7.5-0.6,15,0.3,22.4,2.7l137.7,84.6
			c22.2,12.1,58.6,24.9,109.4,38.3c147.6-47.8,233.8-72.8,258.4-75c15.1-2.5,28.7-2,41.1,1.4c16.4,4.7,38.7,13.6,66.8,26.9
			l99.4-16.3c115.6,56.6,229.7,101.5,342.2,134.6c81.5-12.2,139-10.6,172.7,4.9c116.7,72.7,261.2,137.7,433.3,195L-2513.1,608.3"/>
	</g>
</g>
</svg>
