<svg xmlns="http://www.w3.org/2000/svg" xmlns:xlink="http://www.w3.org/1999/xlink" width="500" viewBox="0 0 375 374.999991" height="500" preserveAspectRatio="xMidYMid meet" version="1.0"><defs><clipPath id="950ab12d12"><path d="M 0 124.378906 L 373 124.378906 L 373 241.378906 L 0 241.378906 Z M 0 124.378906 " clip-rule="nonzero"/></clipPath></defs><g clip-path="url(#950ab12d12)"><path fill="#7090aa" d="M -0.902344 241.257812 L 6.265625 235.03125 C 39.84375 206.839844 61.222656 184.226562 70.394531 167.199219 C 70.828125 166.941406 71.355469 166.964844 71.984375 167.269531 C 72.507812 167.5 73.578125 168.636719 75.195312 170.679688 C 75.535156 170.964844 75.835938 171.050781 76.101562 170.941406 C 79.871094 163.378906 82.78125 159.792969 84.820312 160.179688 C 87.085938 159.976562 88.5625 162.40625 89.246094 167.464844 C 90.5 165.070312 91.597656 163.671875 92.546875 163.273438 C 92.835938 163.140625 93.207031 163.152344 93.667969 163.300781 L 96.84375 164.992188 L 99.453125 164.859375 L 104.296875 172.824219 C 104.707031 173.027344 105.15625 173.09375 105.648438 173.027344 L 110.449219 171.992188 C 111.191406 171.976562 111.960938 172.160156 112.753906 172.542969 L 125.167969 183.570312 C 127.414062 185.285156 130.367188 187.183594 134.03125 189.269531 C 149.914062 172.949219 161.148438 160.496094 167.726562 151.90625 C 169.332031 150.179688 171.417969 150.265625 173.984375 152.164062 C 177.429688 149.089844 182.457031 142.125 189.0625 131.261719 C 190.976562 129.238281 194.488281 129.261719 199.597656 131.332031 C 202.917969 126.742188 205.261719 124.5625 206.632812 124.785156 C 206.863281 124.664062 207.402344 124.90625 208.242188 125.507812 L 212.265625 130.144531 C 212.550781 130.277344 212.835938 130.269531 213.121094 130.125 C 214.894531 128.429688 216.042969 127.605469 216.570312 127.652344 C 217.660156 127.445312 218.847656 127.960938 220.128906 129.199219 L 224.285156 134.71875 L 240.484375 161.695312 C 242.023438 163.480469 243.308594 164.433594 244.34375 164.558594 C 244.75 164.992188 246.308594 164.480469 249.011719 163.03125 C 249.566406 162.917969 250.117188 163.089844 250.660156 163.546875 L 260.800781 179.804688 C 262.433594 182.132812 265.117188 184.585938 268.859375 187.160156 C 279.730469 177.976562 286.074219 173.167969 287.886719 172.738281 C 289 172.257812 290.003906 172.347656 290.910156 173.003906 C 292.121094 173.898438 293.761719 175.625 295.828125 178.179688 L 303.144531 175.039062 C 311.660156 185.925781 320.058594 194.550781 328.34375 200.910156 C 334.34375 198.5625 338.582031 198.878906 341.058594 201.851562 C 349.65625 215.835938 360.292969 228.332031 372.96875 239.347656 L -0.902344 241.257812 " fill-opacity="1" fill-rule="nonzero"/></g></svg>